HIERARCHY
ROOT Hips
{
	OFFSET -0.001795 -0.223333 0.028219
	CHANNELS 6 Xposition Yposition Zposition Zrotation Yrotation Xrotation 
	JOINT LeftUpLeg
	{
		OFFSET 0.069520 -0.091406 -0.006815
		CHANNELS 3 Zrotation Yrotation Xrotation
		JOINT LeftLeg
		{
			OFFSET 0.034277 -0.375199 -0.004496
			CHANNELS 3 Zrotation Yrotation Xrotation
			JOINT LeftFoot
			{
				OFFSET -0.013596 -0.397961 -0.043693
				CHANNELS 3 Zrotation Yrotation Xrotation
				JOINT LeftToe
				{
					OFFSET 0.026358 -0.055791 0.119288
					CHANNELS 3 Zrotation Yrotation Xrotation
					End Site
					{
						OFFSET 0.000000 0.000000 0.000000
					}
				}
			}
		}
	}
	JOINT RightUpLeg
	{
		OFFSET -0.067670 -0.090522 -0.004320
		CHANNELS 3 Zrotation Yrotation Xrotation
		JOINT RightLeg
		{
			OFFSET -0.038290 -0.382569 -0.008850
			CHANNELS 3 Zrotation Yrotation Xrotation
			JOINT RightFoot
			{
				OFFSET 0.015774 -0.398415 -0.042312
				CHANNELS 3 Zrotation Yrotation Xrotation
				JOINT RightToe
				{
					OFFSET -0.025372 -0.048144 0.123348
					CHANNELS 3 Zrotation Yrotation Xrotation
					End Site
					{
						OFFSET 0.000000 0.000000 0.000000
					}
				}
			}
		}
	}
	JOINT Spine
	{
		OFFSET -0.002533 0.108963 -0.026696
		CHANNELS 3 Zrotation Yrotation Xrotation
		JOINT Spine1
		{
			OFFSET 0.005487 0.135180 0.001092
			CHANNELS 3 Zrotation Yrotation Xrotation
			JOINT Spine2
			{
				OFFSET 0.001457 0.052922 0.025425
				CHANNELS 3 Zrotation Yrotation Xrotation
				JOINT Neck
				{
					OFFSET -0.002778 0.213870 -0.042857
					CHANNELS 3 Zrotation Yrotation Xrotation
					JOINT Head
					{
						OFFSET 0.005152 0.064970 0.051349
						CHANNELS 3 Zrotation Yrotation Xrotation
						End Site
						{
							OFFSET 0.000000 0.000000 0.000000
						}
					}
				}
				JOINT LeftShoulder
				{
					OFFSET 0.078845 0.121749 -0.034090
					CHANNELS 3 Zrotation Yrotation Xrotation
					JOINT LeftArm
					{
						OFFSET 0.090977 0.030469 -0.008868
						CHANNELS 3 Zrotation Yrotation Xrotation
						JOINT LeftForeArm
						{
							OFFSET 0.259612 -0.012772 -0.027456
							CHANNELS 3 Zrotation Yrotation Xrotation
							JOINT LeftHand
							{
								OFFSET 0.249234 0.008986 -0.001171
								CHANNELS 3 Zrotation Yrotation Xrotation
								End Site
								{
									OFFSET 0.000000 0.000000 0.000000
								}
							}
						}
					}
				}
				JOINT RightShoulder
				{
					OFFSET -0.081759 0.118833 -0.038615
					CHANNELS 3 Zrotation Yrotation Xrotation
					JOINT RightArm
					{
						OFFSET -0.096012 0.032551 -0.009143
						CHANNELS 3 Zrotation Yrotation Xrotation
						JOINT RightForeArm
						{
							OFFSET -0.253742 -0.013329 -0.021401
							CHANNELS 3 Zrotation Yrotation Xrotation
							JOINT RightHand
							{
								OFFSET -0.255298 0.007772 -0.005559
								CHANNELS 3 Zrotation Yrotation Xrotation
								End Site
								{
									OFFSET 0.000000 0.000000 0.000000
								}
							}
						}
					}
				}
			}
		}
	}
}
MOTION
Frames: 14
Frame Time: 0.050000
0.000000 0.858557 0.000000 -1.271123 -0.302034 30.039288 5.588936 -2.440596 -60.978174 -4.991391 0.926514 28.207024 5.061331 11.908473 2.388857 0.000000 0.000000 0.000000 -13.437092 -0.161172 -58.922028 10.160202 -2.322255 23.083603 -9.904872 -23.214151 71.886098 0.000000 0.000000 0.000000 1.341166 -3.571814 58.530472 -5.850947 1.669824 -26.564933 -1.540154 4.861789 30.195666 12.439858 -6.420540 -17.131495 0.000000 0.000000 0.000000 -14.662042 -9.104216 3.206498 -54.553363 -8.583801 -5.236265 -74.422946 -56.651233 49.131992 0.000000 0.000000 0.000000 13.604194 -0.268657 0.211459 65.376687 3.135896 -6.844069 88.278305 50.435418 57.229301 0.000000 0.000000 0.000000 
0.000072 0.858457 0.000070 -2.002656 -1.628259 32.446531 6.144221 -1.625185 -63.007967 -4.563843 0.849289 27.635718 5.394622 12.634797 2.954785 0.000000 0.000000 0.000000 -13.014378 0.568537 -60.778085 9.729269 -1.998517 21.189968 -9.866767 -23.745470 71.635009 0.000000 0.000000 0.000000 0.030919 -2.132673 56.294971 -3.756589 1.276169 -28.161031 -1.445183 8.762089 32.551235 16.202459 -8.937505 -16.099903 0.000000 0.000000 0.000000 -17.417042 -13.464149 4.638657 -48.425864 -6.095706 -5.560689 -103.688418 -58.584027 74.599473 0.000000 0.000000 0.000000 18.929569 -0.688751 1.064031 61.198881 0.510935 -8.304155 102.634064 54.727926 76.825346 0.000000 0.000000 0.000000 
-0.000113 0.856647 0.001033 -0.841066 -1.711303 30.693165 5.914295 -1.820405 -61.698734 -6.409246 1.558642 28.458783 5.631066 13.001089 2.518299 0.000000 0.000000 0.000000 -14.155541 -0.050057 -59.339726 10.337324 -2.244738 22.213725 -10.818244 -24.304237 71.456127 0.000000 0.000000 0.000000 0.168384 -2.236571 57.719069 -3.625936 1.278554 -28.253926 -1.911079 8.160766 33.146422 17.170497 -10.326711 -14.436872 0.000000 0.000000 0.000000 -17.703327 -14.646593 5.538225 -49.400262 -5.556363 -5.989306 -104.835966 -61.436178 79.459330 0.000000 0.000000 0.000000 16.622602 -1.165679 0.458672 61.300263 0.115775 -8.435472 107.952259 50.891525 77.586235 0.000000 0.000000 0.000000 
-0.000184 0.853268 0.003312 -0.606537 -1.886260 30.765812 5.265817 -2.154888 -62.957697 -5.639915 1.332883 30.806831 5.710251 13.116308 2.166889 0.000000 0.000000 0.000000 -14.826264 -0.369008 -60.323908 11.123086 -2.613094 23.951275 -10.765666 -24.266006 71.498630 0.000000 0.000000 0.000000 -0.179676 -1.968210 57.337590 -3.583786 1.271097 -27.805544 -1.962954 7.472579 32.043049 18.035671 -11.234293 -13.714172 0.000000 0.000000 0.000000 -19.082205 -15.920786 6.532179 -49.610388 -3.480251 -6.635644 -110.185627 -62.398961 86.356666 0.000000 0.000000 0.000000 16.790154 0.167709 1.038698 60.124526 -2.241258 -9.360953 114.902984 52.656893 86.363241 0.000000 0.000000 0.000000 
-0.000433 0.847489 0.006781 -0.259237 -1.910333 29.839959 4.859837 -2.415291 -63.203207 -5.670651 1.410529 33.335886 5.960623 13.384671 0.725842 0.000000 0.000000 0.000000 -14.617238 -0.282139 -59.673211 10.482390 -2.476060 25.147644 -13.345327 -26.279843 70.995541 0.000000 0.000000 0.000000 0.237735 -2.257579 57.405410 -3.613124 1.278099 -27.952725 -2.228036 7.645430 32.143645 17.204612 -10.696163 -13.424344 0.000000 0.000000 0.000000 -18.195285 -16.434975 6.735433 -51.884094 -4.133654 -6.692828 -112.601789 -64.929378 92.072125 0.000000 0.000000 0.000000 15.615079 -0.823694 0.459767 60.311986 -2.651652 -9.500868 116.159467 51.317153 86.433110 0.000000 0.000000 0.000000 
-0.000471 0.842121 0.010826 -0.293127 -1.971961 28.421717 4.874748 -2.389835 -62.969541 -5.943085 1.631406 36.072436 6.225320 13.674517 -0.728103 0.000000 0.000000 0.000000 -14.221373 -0.072878 -59.099626 10.257134 -2.520131 27.354883 -15.004827 -27.491719 70.573132 0.000000 0.000000 0.000000 0.552913 -2.487323 58.799388 -4.178606 1.359397 -29.222984 -1.840437 7.991087 32.127602 18.129647 -11.496203 -13.169682 0.000000 0.000000 0.000000 -18.411329 -17.013279 6.941395 -51.659881 -3.632740 -6.828444 -113.387682 -66.278402 94.205059 0.000000 0.000000 0.000000 16.321254 -0.711022 0.634735 59.295187 -3.853937 -9.970915 118.724226 50.905770 88.959375 0.000000 0.000000 0.000000 
0.000023 0.838007 0.014842 -0.059638 -2.122543 28.033539 4.462040 -2.602523 -63.557851 -5.776892 1.630309 38.273876 6.398396 13.925794 -1.351140 0.000000 0.000000 0.000000 -14.437461 -0.147369 -59.082139 10.304878 -2.603937 28.575702 -16.487378 -28.693418 70.237192 0.000000 0.000000 0.000000 0.674502 -2.549141 59.463142 -4.087359 1.340856 -29.521897 -1.898150 8.576903 31.530109 18.580605 -11.727635 -13.232600 0.000000 0.000000 0.000000 -18.269624 -16.835639 6.615494 -52.319729 -2.825134 -7.137211 -118.627810 -66.108469 99.621930 0.000000 0.000000 0.000000 16.388224 -0.968579 0.617412 59.573599 -4.394347 -10.163891 118.209716 51.458961 89.295834 0.000000 0.000000 0.000000 
0.001233 0.835555 0.018528 0.561923 -1.559322 28.120750 3.826309 -3.244322 -64.224235 -5.753578 1.568979 39.471064 6.329000 13.795310 -1.526222 0.000000 0.000000 0.000000 -15.103420 -0.726673 -59.510347 10.361149 -2.785444 30.011268 -16.784855 -28.677712 70.384037 0.000000 0.000000 0.000000 0.927881 -2.974518 59.942618 -3.886648 1.311668 -29.676963 -1.502657 8.892067 31.066966 19.272208 -11.849526 -14.065750 0.000000 0.000000 0.000000 -19.265914 -17.026583 6.550237 -52.141231 -2.537674 -7.071438 -122.954306 -66.018284 104.271121 0.000000 0.000000 0.000000 15.842162 -1.321229 0.502445 59.389745 -4.684439 -10.120007 119.192770 51.452644 90.724833 0.000000 0.000000 0.000000 
0.002983 0.833664 0.021747 1.044868 -1.968468 28.008629 3.210993 -3.468214 -64.035990 -5.793354 1.624133 39.787055 6.567099 14.187077 -2.273714 0.000000 0.000000 0.000000 -15.737554 -0.948875 -59.920129 10.449229 -2.884926 31.258126 -16.537778 -28.538010 70.233124 0.000000 0.000000 0.000000 1.240600 -3.082521 60.426752 -3.831438 1.298575 -30.050206 -1.708883 8.966043 31.631746 19.842782 -12.095125 -14.787889 0.000000 0.000000 0.000000 -20.359554 -16.667575 6.400528 -51.826306 -2.635491 -7.045047 -128.094963 -65.549617 110.335931 0.000000 0.000000 0.000000 15.626756 -1.334209 0.482105 58.493987 -4.171358 -9.856568 117.133902 52.444045 89.433703 0.000000 0.000000 0.000000 
0.004727 0.832547 0.024484 1.971599 -2.098812 28.349513 2.118552 -4.136294 -64.475612 -5.555010 1.482005 40.147597 6.639202 14.370233 -2.183831 0.000000 0.000000 0.000000 -17.242730 -1.761860 -60.630850 11.268360 -3.323173 32.243629 -15.632018 -27.736831 70.422386 0.000000 0.000000 0.000000 1.346129 -3.182767 60.721284 -3.302398 1.220442 -30.442175 -1.983567 9.248391 31.869198 20.808515 -12.393495 -15.872619 0.000000 0.000000 0.000000 -20.755299 -17.314085 6.716632 -52.029149 -2.847039 -6.960746 -132.609002 -65.671982 116.162398 0.000000 0.000000 0.000000 15.060219 -1.761177 0.267275 57.316809 -3.141795 -9.206867 114.814024 51.570035 85.748320 0.000000 0.000000 0.000000 
0.006113 0.831780 0.026490 2.141074 -3.092203 28.776414 1.621384 -4.069009 -64.613839 -5.219490 1.400076 40.004756 6.939797 14.938088 -2.614493 0.000000 0.000000 0.000000 -17.633916 -1.634846 -61.251242 11.257016 -3.249489 32.320759 -15.599398 -28.070650 70.116999 0.000000 0.000000 0.000000 1.719125 -3.100880 60.866490 -3.807129 1.271005 -30.698709 -1.960392 9.182550 32.339485 21.872584 -13.654534 -14.916373 0.000000 0.000000 0.000000 -21.774202 -17.469902 7.007639 -50.598344 -3.785389 -6.473676 -139.397634 -66.366860 126.235772 0.000000 0.000000 0.000000 15.774101 -1.608233 0.334271 53.947789 -1.418712 -8.251869 114.586980 51.530680 85.115939 0.000000 0.000000 0.000000 
0.007201 0.831992 0.028208 2.602851 -3.463004 29.155297 0.867854 -4.375007 -64.310726 -4.812446 1.189411 39.086056 7.064458 15.144534 -3.181624 0.000000 0.000000 0.000000 -18.275485 -1.872048 -61.529315 11.333940 -3.262119 32.217160 -15.503847 -28.118605 70.026541 0.000000 0.000000 0.000000 2.279450 -3.380507 60.665659 -3.533033 1.222256 -30.585519 -2.038658 9.227829 32.076668 23.318810 -14.853903 -14.667658 0.000000 0.000000 0.000000 -21.336213 -18.088011 7.421024 -50.765444 -3.892380 -6.447859 -140.655681 -66.830239 128.406432 0.000000 0.000000 0.000000 16.297968 -2.204416 -0.042137 51.049701 -0.837116 -7.697973 112.662833 50.117978 80.638697 0.000000 0.000000 0.000000 
0.007977 0.832491 0.029955 2.747675 -4.217080 29.129988 0.626730 -4.216921 -63.906398 -4.877231 1.287639 38.723978 7.283910 15.574656 -3.389409 0.000000 0.000000 0.000000 -18.528151 -1.739242 -61.811997 11.324961 -3.226191 32.580875 -14.756068 -27.688631 69.898570 0.000000 0.000000 0.000000 3.121831 -3.649007 60.019974 -4.148480 1.300984 -30.128877 -2.170210 8.082916 31.778598 24.102115 -15.264157 -15.298273 0.000000 0.000000 0.000000 -21.321109 -18.272006 8.066350 -50.592129 -4.152256 -6.395117 -140.261300 -68.156030 129.867199 0.000000 0.000000 0.000000 16.080908 -2.330868 -0.484935 49.786762 -0.440179 -7.363373 112.919517 48.379152 77.676415 0.000000 0.000000 0.000000 
0.008447 0.834563 0.032087 2.720248 -4.845013 28.914526 0.099018 -4.215845 -62.841568 -4.148034 0.981606 37.788344 7.409803 15.773206 -3.835456 0.000000 0.000000 0.000000 -18.686171 -1.553949 -61.472228 11.560188 -3.239223 32.275569 -14.037172 -27.223126 69.830948 0.000000 0.000000 0.000000 3.772580 -3.848159 59.864259 -3.971308 1.259829 -30.242522 -2.230687 7.432226 31.591781 25.094331 -15.834903 -15.870998 0.000000 0.000000 0.000000 -20.526909 -17.953892 8.127633 -50.743646 -4.757712 -6.246828 -135.232429 -68.436851 124.057490 0.000000 0.000000 0.000000 16.327599 -2.606132 -0.873441 48.834266 -0.199923 -7.158847 112.016909 47.815773 75.276000 0.000000 0.000000 0.000000 
